<svg width="58" height="59" viewBox="0 0 58 59" fill="none" xmlns="http://www.w3.org/2000/svg">
<g filter="url(#filter0_d_266_562)">
<path d="M4.00468 25.5143C4.27307 11.7097 15.6814 0.736545 29.4859 1.00493C43.2904 1.27332 54.2636 12.6817 53.9952 26.4862C53.7268 40.2907 42.3185 51.2639 28.514 50.9955C14.7095 50.7271 3.73629 39.3188 4.00468 25.5143Z" fill="#55936A"/>
</g>
<line x1="23" y1="20.5" x2="35" y2="20.5" stroke="white"/>
<line x1="23" y1="22.5" x2="35" y2="22.5" stroke="white"/>
<line x1="23" y1="24.5" x2="35" y2="24.5" stroke="white"/>
<path d="M19.3824 15.3889C18.9306 15.3889 17.3529 15.3889 17.3529 17.4722V35.8739C17.3529 36.365 18.2541 37.6111 18.7059 37.6111L30.7857 36.3214V31.8571C30.7857 30.8694 31.5199 30.0714 32.4286 30.0714H37.6471V17.4722C37.6471 15.4771 37.6471 15.3889 36.5357 15.3889H19.3824ZM30.7857 39H19.2857C17.4734 39 16 37.3984 16 35.4286V17.5714C16 15.6016 17.4734 14 19.2857 14H35.7143C37.5266 14 39 14.8079 39 16.7778V30.0714V30.3783C39 31.327 38.656 32.2366 38.04 32.9062L33.3937 37.9565C32.7777 38.6261 31.9408 39 31.0681 39H30.7857Z" fill="#FFFEFE"/>
<path d="M38.9641 11.2933L38.3017 12.0503L40.0809 14.0836L40.7434 13.3266C41.0855 12.9355 41.0855 12.3021 40.7434 11.9111L40.2041 11.2933C39.8619 10.9022 39.3076 10.9022 38.9655 11.2933H38.9641ZM37.9923 12.4038L34.8019 16.0512C34.6596 16.2139 34.5556 16.4156 34.4981 16.6362L34.0136 18.5177C33.9794 18.6507 34.0109 18.793 34.0957 18.89C34.1806 18.987 34.3051 19.0229 34.4201 18.9854L36.0666 18.4317C36.2596 18.366 36.4361 18.2472 36.5785 18.0845L39.7716 14.4371L37.9923 12.4038Z" fill="white"/>
<rect x="21.25" y="29.25" width="4.5" height="4.5" stroke="#FFFDFD" stroke-width="0.5"/>
<circle cx="21.5" cy="20.5" r="0.5" fill="#FDFDFD"/>
<circle cx="21.5" cy="24.5" r="0.5" fill="#FDFDFD"/>
<circle cx="21.5" cy="22.5" r="0.5" fill="#FDFDFD"/>
<path d="M26.7664 27.5339C26.8892 27.3997 26.8892 27.668 26.7664 27.5339L23.7938 31.8994C23.6711 32.0335 23.4717 32.0335 23.349 31.8994L22 29.9384C22.1228 29.8042 22.4141 29.9048 22.5368 30.039L23.5719 31.1694L26.7664 27.5339C27.2242 26.4028 26.8892 27.3997 26.7664 27.5339Z" fill="#FEFBFB"/>
<defs>
<filter id="filter0_d_266_562" x="-0.000137329" y="1.00011" width="58.0002" height="58.0002" filterUnits="userSpaceOnUse" color-interpolation-filters="sRGB">
<feFlood flood-opacity="0" result="BackgroundImageFix"/>
<feColorMatrix in="SourceAlpha" type="matrix" values="0 0 0 0 0 0 0 0 0 0 0 0 0 0 0 0 0 0 127 0" result="hardAlpha"/>
<feOffset dy="4"/>
<feGaussianBlur stdDeviation="2"/>
<feComposite in2="hardAlpha" operator="out"/>
<feColorMatrix type="matrix" values="0 0 0 0 0 0 0 0 0 0 0 0 0 0 0 0 0 0 0.25 0"/>
<feBlend mode="normal" in2="BackgroundImageFix" result="effect1_dropShadow_266_562"/>
<feBlend mode="normal" in="SourceGraphic" in2="effect1_dropShadow_266_562" result="shape"/>
</filter>
</defs>
</svg>
