<svg width="58" height="58" viewBox="0 0 58 58" fill="none" xmlns="http://www.w3.org/2000/svg">
<g filter="url(#filter0_d_145_198)">
<path d="M4 25C4 11.1929 15.1929 0 29 0C42.8071 0 54 11.1929 54 25C54 38.8071 42.8071 50 29 50C15.1929 50 4 38.8071 4 25Z" fill="#49D479"/>
</g>
<line x1="25" y1="14.5" x2="37" y2="14.5" stroke="white"/>
<line x1="25" y1="16.5" x2="37" y2="16.5" stroke="white"/>
<line x1="25" y1="18.5" x2="37" y2="18.5" stroke="white"/>
<path d="M21.3824 9.38889C20.9306 9.38889 19.3529 9.38889 19.3529 11.4722V29.8739C19.3529 30.365 20.2541 31.6111 20.7059 31.6111L32.7857 30.3214V25.8571C32.7857 24.8694 33.5199 24.0714 34.4286 24.0714H39.6471V11.4722C39.6471 9.47714 39.6471 9.38889 38.5357 9.38889H21.3824ZM32.7857 33H21.2857C19.4734 33 18 31.3984 18 29.4286V11.5714C18 9.60156 19.4734 8 21.2857 8H37.7143C39.5266 8 41 8.80791 41 10.7778V24.0714V24.3783C41 25.327 40.656 26.2366 40.04 26.9062L35.3937 31.9565C34.7777 32.6261 33.9408 33 33.0681 33H32.7857Z" fill="#FFFEFE"/>
<path d="M22.6534 34.7273H23.5341V39.5426C23.5341 40.0398 23.4169 40.4837 23.1825 40.8743C22.9505 41.2625 22.6226 41.5691 22.1989 41.794C21.7751 42.0166 21.2779 42.1278 20.7074 42.1278C20.1368 42.1278 19.6397 42.0166 19.2159 41.794C18.7921 41.5691 18.4631 41.2625 18.2287 40.8743C17.9967 40.4837 17.8807 40.0398 17.8807 39.5426V34.7273H18.7614V39.4716C18.7614 39.8267 18.8395 40.1428 18.9957 40.4197C19.152 40.6944 19.3745 40.911 19.6634 41.0696C19.9545 41.2259 20.3026 41.304 20.7074 41.304C21.1122 41.304 21.4602 41.2259 21.7514 41.0696C22.0426 40.911 22.2652 40.6944 22.419 40.4197C22.5753 40.1428 22.6534 39.8267 22.6534 39.4716V34.7273ZM31.0598 34.7273V42H30.2076L26.2445 36.2898H26.1735V42H25.2928V34.7273H26.1451L30.1223 40.4517H30.1934V34.7273H31.0598ZM32.9045 40.0312V42H32.4016V38.7273H32.8874V39.2386H32.93C33.0067 39.0724 33.1232 38.9389 33.2795 38.8381C33.4357 38.7358 33.6374 38.6847 33.8846 38.6847C34.1062 38.6847 34.3001 38.7301 34.4663 38.821C34.6325 38.9105 34.7617 39.0469 34.854 39.2301C34.9464 39.4119 34.9925 39.642 34.9925 39.9205V42H34.4897V39.9545C34.4897 39.6974 34.4229 39.4972 34.2894 39.3537C34.1559 39.2088 33.9727 39.1364 33.7397 39.1364C33.5792 39.1364 33.4357 39.1712 33.3093 39.2408C33.1843 39.3104 33.0856 39.4119 33.0131 39.5455C32.9407 39.679 32.9045 39.8409 32.9045 40.0312ZM37.2409 42.0682C36.9455 42.0682 36.6863 41.9979 36.4632 41.8572C36.2417 41.7166 36.0684 41.5199 35.9434 41.267C35.8198 41.0142 35.758 40.7187 35.758 40.3807C35.758 40.0398 35.8198 39.7422 35.9434 39.4879C36.0684 39.2337 36.2417 39.0362 36.4632 38.8956C36.6863 38.755 36.9455 38.6847 37.2409 38.6847C37.5364 38.6847 37.7949 38.755 38.0165 38.8956C38.2395 39.0362 38.4128 39.2337 38.5364 39.4879C38.6614 39.7422 38.7239 40.0398 38.7239 40.3807C38.7239 40.7187 38.6614 41.0142 38.5364 41.267C38.4128 41.5199 38.2395 41.7166 38.0165 41.8572C37.7949 41.9979 37.5364 42.0682 37.2409 42.0682ZM37.2409 41.6165C37.4654 41.6165 37.65 41.5589 37.7949 41.4439C37.9398 41.3288 38.0471 41.1776 38.1167 40.9901C38.1863 40.8026 38.2211 40.5994 38.2211 40.3807C38.2211 40.1619 38.1863 39.9581 38.1167 39.7692C38.0471 39.5803 37.9398 39.4276 37.7949 39.3111C37.65 39.1946 37.4654 39.1364 37.2409 39.1364C37.0165 39.1364 36.8319 39.1946 36.687 39.3111C36.5421 39.4276 36.4348 39.5803 36.3652 39.7692C36.2956 39.9581 36.2608 40.1619 36.2608 40.3807C36.2608 40.5994 36.2956 40.8026 36.3652 40.9901C36.4348 41.1776 36.5421 41.3288 36.687 41.4439C36.8319 41.5589 37.0165 41.6165 37.2409 41.6165ZM40.9148 38.7273V39.1534H39.2188V38.7273H40.9148ZM39.7131 37.9432H40.2159V41.0625C40.2159 41.2045 40.2365 41.3111 40.2777 41.3821C40.3203 41.4517 40.3743 41.4986 40.4396 41.5227C40.5064 41.5455 40.5767 41.5568 40.6506 41.5568C40.706 41.5568 40.7514 41.554 40.7869 41.5483C40.8224 41.5412 40.8509 41.5355 40.8722 41.5312L40.9744 41.983C40.9403 41.9957 40.8928 42.0085 40.8317 42.0213C40.7706 42.0355 40.6932 42.0426 40.5994 42.0426C40.4574 42.0426 40.3182 42.0121 40.1818 41.951C40.0469 41.8899 39.9347 41.7969 39.8452 41.6719C39.7571 41.5469 39.7131 41.3892 39.7131 41.1989V37.9432ZM43.0082 42.0682C42.6928 42.0682 42.4208 41.9986 42.1921 41.8594C41.9648 41.7188 41.7894 41.5227 41.6658 41.2713C41.5437 41.0185 41.4826 40.7244 41.4826 40.3892C41.4826 40.054 41.5437 39.7585 41.6658 39.5028C41.7894 39.2457 41.9613 39.0455 42.1815 38.902C42.4031 38.7571 42.6616 38.6847 42.957 38.6847C43.1275 38.6847 43.2958 38.7131 43.462 38.7699C43.6282 38.8267 43.7795 38.919 43.9158 39.0469C44.0522 39.1733 44.1609 39.3409 44.2418 39.5497C44.3228 39.7585 44.3633 40.0156 44.3633 40.321V40.5341H41.8406V40.0994H43.8519C43.8519 39.9148 43.815 39.75 43.7411 39.6051C43.6687 39.4602 43.565 39.3459 43.43 39.2621C43.2965 39.1783 43.1388 39.1364 42.957 39.1364C42.7567 39.1364 42.5835 39.1861 42.4371 39.2855C42.2923 39.3835 42.1808 39.5114 42.1026 39.669C42.0245 39.8267 41.9854 39.9957 41.9854 40.1761V40.4659C41.9854 40.7131 42.0281 40.9226 42.1133 41.0945C42.1999 41.2649 42.32 41.3949 42.4734 41.4844C42.6268 41.5724 42.805 41.6165 43.0082 41.6165C43.1403 41.6165 43.2596 41.598 43.3661 41.5611C43.4741 41.5227 43.5671 41.4659 43.6452 41.3906C43.7234 41.3139 43.7837 41.2187 43.8263 41.1051L44.3121 41.2415C44.261 41.4062 44.1751 41.5511 44.0543 41.6761C43.9336 41.7997 43.7844 41.8963 43.6069 41.9659C43.4293 42.0341 43.2298 42.0682 43.0082 42.0682Z" fill="white"/>
<path d="M42.9641 7.29326L42.3017 8.05028L44.0809 10.0836L44.7434 9.32657C45.0855 8.93555 45.0855 8.3021 44.7434 7.91108L44.2041 7.29326C43.8619 6.90225 43.3076 6.90225 42.9655 7.29326H42.9641ZM41.9923 8.40376L38.8019 12.0512C38.6596 12.2139 38.5556 12.4156 38.4981 12.6362L38.0136 14.5177C37.9794 14.6507 38.0109 14.793 38.0957 14.89C38.1806 14.987 38.3051 15.0229 38.4201 14.9854L40.0666 14.4317C40.2596 14.366 40.4361 14.2472 40.5785 14.0845L43.7716 10.4371L41.9923 8.40376Z" fill="white"/>
<rect x="23.25" y="23.25" width="4.5" height="4.5" stroke="#FFFDFD" stroke-width="0.5"/>
<circle cx="23.5" cy="14.5" r="0.5" fill="#FDFDFD"/>
<circle cx="23.5" cy="18.5" r="0.5" fill="#FDFDFD"/>
<circle cx="23.5" cy="16.5" r="0.5" fill="#FDFDFD"/>
<path d="M28.7664 21.5339C28.8892 21.3997 28.8892 21.668 28.7664 21.5339L25.7938 25.8994C25.6711 26.0335 25.4717 26.0335 25.349 25.8994L24 23.9384C24.1228 23.8042 24.4141 23.9048 24.5368 24.039L25.5719 25.1694L28.7664 21.5339C29.2242 20.4028 28.8892 21.3997 28.7664 21.5339Z" fill="#FEFBFB"/>
<defs>
<filter id="filter0_d_145_198" x="0" y="0" width="58" height="58" filterUnits="userSpaceOnUse" color-interpolation-filters="sRGB">
<feFlood flood-opacity="0" result="BackgroundImageFix"/>
<feColorMatrix in="SourceAlpha" type="matrix" values="0 0 0 0 0 0 0 0 0 0 0 0 0 0 0 0 0 0 127 0" result="hardAlpha"/>
<feOffset dy="4"/>
<feGaussianBlur stdDeviation="2"/>
<feComposite in2="hardAlpha" operator="out"/>
<feColorMatrix type="matrix" values="0 0 0 0 0 0 0 0 0 0 0 0 0 0 0 0 0 0 0.25 0"/>
<feBlend mode="normal" in2="BackgroundImageFix" result="effect1_dropShadow_145_198"/>
<feBlend mode="normal" in="SourceGraphic" in2="effect1_dropShadow_145_198" result="shape"/>
</filter>
</defs>
</svg>
